<?xml version="1.0" encoding="UTF-8" standalone="no"?>
<svg xmlns="http://www.w3.org/2000/svg" xmlns:xlink="http://www.w3.org/1999/xlink" width="440" height="330" version="1.0">
  <defs>
    <radialGradient xlink:href="#a" id="c" cx="767.13367" cy="-278.61365" r="33.160084" fx="767.13367" fy="-278.61365" gradientTransform="matrix(1.45983 -.44075 .41808 1.26376 -227.9885 414.3411)" gradientUnits="userSpaceOnUse"/>
    <radialGradient xlink:href="#b" id="d" cx="772.52582" cy="-173.40308" r="42.042526" fx="772.52582" fy="-173.40308" gradientTransform="matrix(.04475 -2.26434 1.64032 .03242 647.609 2365.125)" gradientUnits="userSpaceOnUse"/>
    <linearGradient id="a">
      <stop offset="0" stop-color="#f6e10f" stop-opacity=".36585367"/>
      <stop offset="1" stop-color="#f6e10f"/>
    </linearGradient>
    <linearGradient id="b">
      <stop offset="0" stop-color="#fbf500"/>
      <stop offset="1" stop-color="#fbf500" stop-opacity="0"/>
    </linearGradient>
  </defs>
  <path fill="#acd4c3" fill-opacity=".42087546" fill-rule="evenodd" d="M189.80836 89.04336c10.10152 4.04061-54.80078-17.17259-124.50131-14.14213-26.92878 1.17082-47.22462 19.19289-55.30584 31.31473-8.08122 12.12183 43.66746 37.4915 74.75128 40.40609 37.75677 3.34698 91.16627-24.74873 100.25764-32.82995 9.09138-8.08122 6.81853-26.76904 4.79823-24.74874zm60.84593-.76596c-10.10152 4.04061 54.80078-17.17259 124.50131-14.14213 26.92878 1.17082 47.22462 19.19289 55.30584 31.31473 8.08122 12.12183-42.90985 38.50165-73.99367 41.41624-54.67682 1.83176-91.92388-25.75888-101.01525-33.8401-9.09138-8.08122-6.81853-26.76904-4.79823-24.74874z"/>
  <path fill="#acd4f6" fill-opacity=".63973066" fill-rule="evenodd" d="M249.91243 127.42916s58.33632 33.58757 68.94292 36.36549c10.6066 2.77792 44.73709 8.47888 56.82108 1.51522 14.89975-8.58629 22.22335-29.04188 22.22335-29.04188L352.948 147.12713l-41.6688-4.29314-35.35534-16.16245-22.72843-14.64721-3.283 15.40483zm-60.86168-.02146s-58.33632 33.58757-68.94292 36.36549c-10.6066 2.77792-44.73714 8.47888-56.82104 1.51522-14.8998-8.58629-22.2234-29.04188-22.2234-29.04188l44.9518 10.85914 41.66879-4.29314 35.35537-16.16245 22.7284-14.64721 3.283 15.40483z"/>
  <path fill="url(#c)" stroke="#000" stroke-linecap="round" stroke-linejoin="round" stroke-width="6.97370577" d="M805.09157-283.05948c0 17.29465-13.28516 31.31473-29.67323 31.31473-16.38808 0-29.67324-14.02008-29.67324-31.31473s13.28516-31.31473 29.67324-31.31473c16.38807 0 29.67323 14.02008 29.67323 31.31473z" transform="matrix(1.0412 0 0 .88363 -586.4082 355.697)"/>
  <path fill="url(#d)" fill-rule="evenodd" stroke="#000" d="M372.47333 545.78127c-4.29315 3.53553 44.69925-12.87945 55.55839-2.52539 10.85914 10.35407 13.13198 62.62946 13.13198 62.62946l-7.57614 58.08377-22.98098 24.74874-30.05203-4.04061-16.16244-33.0825-6.31346-44.95178 5.55584-42.67895 8.83884-18.18274z" transform="translate(-180.8972 -395.1186)"/>
  <path d="M216.84694 324.66377c-.9696-1.3159-2.0199-4.5502-2.3339-7.1872-.314-2.6371-1.4399-7.045-2.502-9.7955-1.6794-4.3491-2.6531-5.3788-7.471-7.9013-3.0469-1.5953-7.6775-5.29889-10.2901-8.23022-5.5111-6.18323-12.1543-18.96414-12.8997-24.81787-.2837-2.22738-1.1288-5.26493-1.878-6.75012-.7493-1.48519-1.3623-4.04339-1.3623-5.6849 0-1.64151-.502-4.25136-1.1156-5.79966-1.4461-3.64922-3.7041-19.7462-4.816-34.33309-.8934-11.72145.0054-31.66802 1.8966-42.08782 1.1069-6.09808 5.2725-16.34797 7.7829-19.15032 2.9978-3.34639.3615-2.92336-5.3317.85554-10.4852 6.95966-20.4629 18.03415-27.24399 30.23856-1.75791 3.16385-5.17221 16.74545-5.17221 20.57432 0 1.7008 1.16586 7.59132 2.59079 13.09004 4.87951 18.8295 5.13621 26.33916 1.20457 35.22738-2.20977 4.99555-8.30549 11.27029-10.94876 11.27029-1.39211 0-1.8466-.75118-1.8466-3.05202 0-2.49206-.55041-3.24389-3-4.09782-3.92172-1.36712-3.80878-3.95228.25558-5.85016 1.76676-.825 4.44207-3.3 5.94514-5.5 2.24713-3.28908 2.73874-5.11475 2.76606-10.2722.02833-5.34844-.54817-7.42852-3.91434-14.1235-2.62407-5.21902-5.38349-9.04408-8.23049-11.40895l-4.28293-3.55764 1.91093-5.81886c1.05101-3.20037 2.4443-6.49385 3.09618-7.31885.65189-.825 1.49808-2.85 1.88043-4.5.38235-1.65 1.89603-4.8 3.36374-7 1.46771-2.2 3.17059-4.9 3.78417-6 .61359-1.1 2.33492-4.15562 3.82519-6.79026 1.49026-2.63464 2.46038-5.57535 2.15583-6.53491-.39151-1.23354.39813-2.28517 2.69539-3.58968 5.35772-3.04244 17.22482-11.0304 17.58242-11.83515.1834-.4125.7931-.75 1.355-.75s3.0151-1.34536 5.4515-2.9897c2.4365-1.64433 5.4966-3.25741 6.8003-3.58461 1.3036-.3272 3.3279-1.61429 4.4984-2.86021 1.7866-1.90174 1.9048-2.4507.7362-3.42051-1.0808-.897-1.9617-.70703-3.941.84991-1.402 1.10282-3.2105 2.00512-4.0189 2.00512-.8085 0-2.0057.64554-2.6605 1.43454-.6548.78899-2.9576 2.35555-5.1172 3.48125-2.1597 1.12569-7.2015 4.21536-11.204 6.86594-4.0025 2.65057-9.29237 5.75874-11.75521 6.90705-13.09937 6.10763-16.01534 7.31122-17.71302 7.31122-4.13448 0-10.3709 9.0225-18.317 26.5-2.0732 4.56003-5.04258 8.5-6.40606 8.5-.29799 0-.54181-1.485-.54181-3.3 0-4.46707-1.40521-5.58947-6.19374-4.94719-5.59625.75062-4.8522-1.18066 2.94557-7.64556 7.43903-6.16748 10.061-9.69442 8.42395-11.33147-.8287-.8287-1.84662-.77519-3.89865.20497-1.58233.75579-7.79208 1.5271-14.43357 1.79279-9.42422.377-12.27827.15608-14.90363-1.15362-1.78596-.89096-4.10594-1.61992-5.15549-1.61992-4.26804 0-13.46081-5.55937-19.78444-11.96473-5.56168-5.63355-6.80068-7.57047-8.58291-13.4175l-2.08292-6.83351-7.91708-3.091c-6.79957-2.65469-9.00139-4.17486-15.5988-10.76965-8.02346-8.02027-9.82269-11.78563-8.37941-17.5361 1.10907-4.41889 16.72472-18.83073 24.75848-22.84986 3.88924-1.94571 7.63446-3.53765 8.32269-3.53765.68824 0 2.54027-.67223 4.11564-1.49384 1.57537-.82161 4.01181-1.49661 5.41431-1.5 1.4025-.00339 3.05649-.51265 3.67554-1.1317.61905-.61905 4.42155-1.50942 8.45-1.9786 4.02845-.46919 9.04039-1.20019 11.13764-1.62446 2.09724-.42427 8.62224-.44236 14.5-.0402 5.87775.40215 17.21182 1.12667 25.18682 1.61004 7.975.48337 15.76679 1.39183 17.3151 2.01881 1.5483.62697 4.71274 1.13995 7.03207 1.13995 2.31934 0 6.67754.68072 9.6849 1.51271 8.28393 2.29175 11.32073 2.65793 12.96303 1.56303 1.7403-1.16022 2.7809-.1578-11.20698-10.79589-11.60833-8.82838-12.2524-9.54381-10.88762-12.09393 1.16981-2.18582-1.65731-8.19493-9.73219-20.68592-4.68069-7.24055-19.2901-22.5-21.54152-22.5-.70299 0-2.30886-1.09713-3.5686-2.43806l-2.29044-2.43806 3.73825-1.56194c2.05604-.85907 4.27172-1.56194 4.92374-1.56194 2.90794 0 30.56676 31.09199 32.67101 36.72632.90902 2.43399 24.57065 26.97704 33.60215 34.85379 6.3555 5.54292 7.895 6.41989 11.2701 6.41989 2.1499 0 4.2065-.4814 4.5702-1.06977.3636-.58837-.7349-3.68886-2.441-6.88998-5.3807-10.09516-3.3807-20.04833 5.502-27.38215l3.4422-2.84191-4.2732-3.09419c-6.9143-5.00664-12.7002-11.82839-14.183-16.722-.7499-2.475-2.8312-7.264-4.6252-10.64223-3.6783-6.92674-3.5684-10.27912.2702-8.2422 2.8901 1.5336 4.4524 3.7663 8.5754 12.25473 2.3359 4.8092 5.442 8.92579 10.3536 13.72185 9.4032 9.18201 11.5161 10.18867 17.6144 8.39231 5.1383-1.51355 14.0682-1.30939 18.5369.42382 3.2997 1.27982 4.7094.68218 12.1635-5.15685 6.6376-5.1995 10.8178-10.54966 15.2509-19.51937 3.5467-7.17622 7.5918-11.76933 9.3877-10.65942 1.3792.85238 1.0351 5.05577-.5195 6.34593-.771.63991-1.6932 2.32437-2.0493 3.74325-.3561 1.41888-1.3003 3.23256-2.0981 4.03041-.7979.79784-1.4507 2.55932-1.4507 3.91438 0 1.35507-.7595 3.68542-1.6878 5.17857-1.9908 3.20201-9.5548 10.85826-13.8122 13.98056l-3 2.20017 4.25 3.59998c2.3375 1.97999 4.25 4.20552 4.25 4.94562s.7032 2.04876 1.5625 2.90813c1.0941 1.09407 1.5625 3.49857 1.5625 8.02039 0 6.66116-.9267 9.46884-4.3764 13.25909-2.8975 3.18344-1.6438 5.30088 3.1384 5.30088 3.1849 0 5.1373-.91996 10.0813-4.75 11.4593-8.87747 28.5542-26.94555 37.111-39.22352 1.3314-1.91043 4.5249-6.05625 7.0967-9.21293 2.5718-3.15668 5.2718-6.48829 6-7.40359 3.4222-4.30137 15.5244-16.70346 17.1572-17.58249 1.3404-.72159 2.3024-.56223 3.5788.59283.96.86883 2.4226 1.5797 3.2501 1.5797.8275 0 1.7816.27695 2.1201.61545.6997.69973-6.0732 7.38455-7.4819 7.38455-1.5341 0-11.7468 10.12662-16.4654 16.32669-2.439 3.20467-6.4015 9.68022-8.8057 14.3901-3.5239 6.90371-4.1569 8.90638-3.266 10.33295 1.2082 1.93475.5319 2.64184-11.6833 12.21511-11.5714 9.06866-11.9089 9.39376-11.1037 10.69661.8983 1.45348 10.1324.60827 12.2122-1.1178.6811-.56527 4.9674-1.27076 9.525-1.56777 4.5577-.297 8.8839-1.0145 9.6138-1.59445.73-.57994 7.705-1.43025 15.5-1.88956 7.7951-.45932 18.9819-1.1629 24.8597-1.5635 5.8777-.40061 12.4027-.35592 14.5.0993 2.0972.45522 7.0534 1.13022 11.0138 1.5 3.9603.36978 7.7628 1.23482 8.45 1.92232.6871.6875 2.6342 1.25 4.3268 1.25 1.6927 0 3.9652.6175 5.05 1.37223 1.0849.75472 3.4354 1.69056 5.2234 2.07964 3.6712.79888 11.1211 4.57566 15.4964 7.85594 5.7383 4.30227 13.7527 12.00317 13.7527 13.2148 0 .67788.675 1.7927 1.5 2.47739.9133.75795 1.5 2.94887 1.5 5.6012 0 3.65417-.8157 5.47426-5.0607 11.29246-2.7835 3.81488-6.496 7.66188-8.25 8.54889-1.7541.88701-3.8643 2.00223-4.6893 2.47827-2.4621 1.4207-7.2703 3.41289-11 4.55766-3.0668.94133-3.5378 1.52565-3.8058 4.72178-.1682 2.00614-.9557 4.18687-1.75 4.84607-.7943.65921-1.4442 2.2461-1.4442 3.52642 0 1.28033-.5632 2.68773-1.2516 3.12756-.6884.43983-1.8447 1.92469-2.5695 3.29969-2.3211 4.40315-15.1185 12.01288-25.5105 15.16936-5.7063 1.73323-8.6261 1.99984-17.5084 1.59872-5.863-.26477-11.8688-1.05506-13.3462-1.7562-1.4774-.70114-3.4057-.99873-4.285-.6613-2.5411.97514.3316 5.45216 7.1547 11.15029 3.1991 2.67161 6.2138 5.1966 6.6993 5.61109.4855.41448.6234 1.42958.3064 2.25577-.4694 1.22327-1.2542 1.31505-4.2266.49433-4.3263-1.19456-4.5919-1.00335-5.3852 3.8769-.3362 2.06857-1.0459 3.70141-1.577 3.62852-.5312-.07289-3.9735-6.09048-7.6497-13.37244-6.6239-13.1211-12.5978-20.99504-15.9288-20.99504-2.4458 0-16.3075-6.50149-22.8074-10.69723-3.088-1.99328-9.8895-6.42756-15.1145-9.85397-10.7031-7.01882-15.1909-9.4488-17.4503-9.4488-3.3447 0-1.2683 3.01174 4.2003 6.09222 3.1625 1.78146 11.375 6.91782 18.25 11.41414s13.5183 8.71569 14.7627 9.37637c1.8295.97124 2.068 1.56517 1.2456 3.1019-.7986 1.4921-.3801 2.934 1.9466 6.70801 8.3642 13.56642 9.9535 16.4716 13.357 24.41507 4.4581 10.40467 4.5692 12.67395.798 16.28706-5.5067 5.27575-9.8701 12.89609-11.6463 20.3394-1.6719 7.00624-1.6648 7.38433.2241 12 1.2953 3.16501 3.3343 5.77351 6.0703 7.76583 4.9497 3.60427 5.3412 5.92119 1.242 7.35016-2.9528 1.02937-3.9745 3.42949-1.9837 4.65992 1.4756.91193.1824 2.48992-2.0405 2.48992-2.1051 0-8.4632-5.17376-10.0872-8.20827-1.582-2.95595-3.8886-12.50086-3.8884-16.09052.0002-3.92428 2.5202-17.34701 4.5227-24.09012 2.9769-10.02447.955-24.45596-4.8492-34.61109-1.1002-1.925-2.5903-4.64817-3.3112-6.05149-2.3029-4.48234-23.5057-23.94851-26.0851-23.94851-1.903 0-1.5437 3.08334.6335 5.43555 3.9905 4.31134 6.2151 14.13452 7.3645 32.51955 1.3736 21.9725.227 37.38258-4.2817 57.5449-.6149 2.75-1.4935 7.30497-1.9523 10.12215-.4588 2.81719-1.3308 6.0501-1.9378 7.18426-.6069 1.13416-1.1036 2.8299-1.1036 3.76832 0 1.56058-2.9819 8.79604-5.1207 12.42527-.4862.825-1.2903 2.42954-1.7868 3.56564-1.727 3.95146-11.4384 13.57593-16.0635 15.91973-2.56 1.2972-5.1653 2.9739-5.7894 3.726-1.1842 1.4269-2.8397 7.2334-4.1681 14.6197-.4391 2.4413-1.8245 5.359-3.1752 6.6872l-2.3963 2.3561-1.763-2.3925zm-10.237-44.95303c4.9624-1.78777 12.3175-1.89674 21.5192-.31883l7.0562 1.21002 2.51-2.92098c1.7017-1.98044 2.4141-3.85997 2.2123-5.83715-.2466-2.41558-1.0701-3.22808-4.7977-4.73317-5.8689-2.36973-28.0839-2.66736-32-.42873-3.1496 1.80051-6.4359 1.88457-7.8337.20039-.5932-.71479-1.3739-3.14685-1.735-5.40459-.5675-3.54897-.3641-4.26136 1.5013-5.25968 3.9315-2.10412 26.1762-3.34522 39.1899-2.18655 6.5677.58475 12.6059.80818 13.4181.4965 2.5528-.97961 2.8295-5.01119.5924-8.63097-4.5446-7.35335-4.0179-7.2151-27.4888-7.2151-17.983 0-21.5179.24696-23.6442 1.65184-1.375.90851-3.9054 1.94423-5.6232 2.30161-3.7307.77615-4.2337-.11507-5.0602-8.96611-.4167-4.46235-.2054-6.32272.8098-7.13137 4.4683-3.55895 41.689-5.16459 56.5977-2.44153 3.9732.72571 7.9107 1.05596 8.75.7339 1.2116-.46495 1.5259-2.44059 1.5259-9.59128v-9.0057l-3.2017-1.65568c-4.7604-2.46171-15.0303-4.4465-26.3373-5.09002-11.9733-.68143-25.1502 1.92754-34.0478 6.7413-6.5507 3.54409-6.824 3.22941-6.2358-7.18059.4798-8.49032 2.4739-10.85415 9.1834-10.88604 2.2766-.01083 7.7392-.67013 12.1392-1.46512 4.9399-.89253 14.7763-1.45878 25.7149-1.48032 16.4711-.03244 17.7874-.17069 18.75-1.96915 2.2912-4.28119.2264-12.74644-3.3148-13.58993-11.1067-2.64557-21.1551-3.1591-35.8309-1.83115-8.907.80595-15.5685 1.00599-16.0913.48322-1.8648-1.86484 1.8462-5.15638 8.2615-7.32775 5.1538-1.74436 9.1882-2.25145 19.3586-2.43318 7.0664-.12627 13.07-.45158 13.3413-.7229 1.3477-1.34766-1.1921-4.56689-4.9327-6.25227-4.7878-2.15721-19.5006-2.65748-21.8693-.74361-.763.61649-2.7644 1.41486-4.4477 1.77417-3.9931.8524-12.7703 8.57951-15.9943 14.08088-1.3977 2.38497-3.7024 8.53491-5.1215 13.66654-2.4891 9.00109-2.5584 10.00051-1.9624 28.33024.6273 19.29481 1.8623 32.35382 3.5864 37.92112.5244 1.69338 1.6817 6.00388 2.5718 9.57888 1.9708 7.916 6.3226 17 8.144 17 .735 0 1.3364.41547 1.3364.92327 0 .75868 4.8032 7.11174 5.3389 7.06167.0886-.00828 1.9611-.66353 4.1611-1.4561zM90.82601 166.4319c2.08116-.9625 3.93393-2.0875 4.11726-2.5.63004-1.41758 4.95314-.74884 5.5712.86182.50481 1.31549 1.48965 1.48213 5.35699.90641 2.60617-.38797 5.20056-1.08505 5.76532-1.54906.56476-.464 4.61476-2.00182 9-3.41736 7.466-2.41001 11.1684-3.92304 17.62745-7.20366 1.45986-.74148 3.31726-1.34815 4.12756-1.34815.81029 0 2.03346-.675 2.71815-1.5.68469-.825 2.10391-1.5 3.15383-1.5 1.04992 0 2.16796-.675 2.48454-1.5.31659-.825 1.39533-1.5 2.39723-1.5 1.0018 0 2.4948-.67325 3.3177-1.49612.8228-.82286 2.5425-1.96719 3.8214-2.54294 5.7714-2.59819 14.3406-8.52954 19.5622-13.54028 4.6244-4.4376 4.7049-4.6141 2.7631-6.05755-1.8882-1.40367-1.9022-1.55934-.25-2.78518 2.3454-1.74012 2.217-3.57793-.25-3.57793-1.1111 0-2 .66667-2 1.5 0 .825-.6932 1.5-1.5405 1.5-1.4557 0-6.2946 3.00669-9.2539 5.75-.7417.6875-1.9432 1.25-2.67 1.25-.7269 0-1.5806.675-1.8972 1.5s-1.4347 1.5-2.4846 1.5c-1.0499 0-2.4451.64607-3.1005 1.43572-.6553.78965-2.4793 1.71857-4.0533 2.06428-1.574.34571-3.398 1.27463-4.05335 2.06428-.65535.78965-1.98134 1.43572-2.94665 1.43572-.96531 0-2.31531.675-3 1.5-.68469.825-2.25969 1.5-3.5 1.5s-2.81531.675-3.5 1.5c-.68469.825-2.07313 1.5-3.08542 1.5-1.0123 0-4.12386.9-6.91458 2-2.79072 1.1-6.76738 2-8.83702 2-2.06964 0-4.32459.5625-5.011 1.25-.87424.87563-6.39999 1.3475-18.45 1.57554-9.46109.17904-17.62948.74154-18.15198 1.25-1.6061 1.56292-2.53793 1.03212-2.28821-1.30346.21706-2.03011-.3243-2.29191-6.09763-2.94879-3.48471-.39648-6.85971-1.14304-7.5-1.65902-.64029-.51598-3.05075-1.2492-5.35659-1.62938-2.30584-.38018-4.72344-1.33106-5.37245-2.11306-1.28584-1.54935-5.50074-1.93368-6.33861-.57798-.28684.46411-.06334 2.50325.49666 4.53142 1.24454 4.50734 11.22258 15.02306 16.24686 17.12234 1.93777.80965 3.80554 1.92891 4.15061 2.48724.34506.55833 2.06334 1.04939 3.81838 1.09123 1.75504.04184 4.76598.68261 6.69098 1.42392 4.90855 1.89027 10.2858 1.79892 14.71607-.25zm9.54725-5.91372c-1.6869-1.17846-5.92695-1.69333-17.25-2.09467-8.25732-.29267-15.01332-.91677-15.01332-1.38687 0-.47011 2.37487-.85474 5.27749-.85474 3.26709 0 6.16704-.62306 7.61264-1.63559 1.91901-1.34413 3.60702-1.49831 9.4725-.86521 3.92555.42372 10.70191 1.04724 15.05858 1.3856 4.43045.34409 8.0835 1.10809 8.28949 1.73366.20255.61516-1.56199 1.78817-3.92121 2.6067-2.35922.81853-4.96449 1.75496-5.78949 2.08094-.825.32599-2.5065-.11043-3.73668-.96982zm15.39972-6.39203c.63966-.64368 3.2864-1.40965 5.88162-1.70217 3.74922-.4226 4.62405-.2453 4.25837.86303-.30009.9095-2.34674 1.50182-5.88163 1.70217-4.13702.23449-5.14587.03003-4.25836-.86303zm10.93561-2.78464c-.74681-1.20835 1.70508-2.15961 5.56647-2.15961 4.28929 0 3.0801 2.42338-1.39952 2.80483-1.96889.16765-3.84402-.1227-4.16695-.64522zm9.0952-2.79909c-1.27595-1.27596.49993-2.36052 3.86517-2.36052 3.87873 0 4.60931 1.45364 1.19098 2.36971-2.91874.7822-4.26721.77974-5.05615-.00919zm8.76571-4.9058c2.14134-1.61912 3.69529-1.49016 4.31127.35778.25403.76208-.79832 1.17611-2.9375 1.1557-3.16154-.03017-3.23234-.10817-1.37377-1.51348zm5.76479-2.62778c.51124-1.53372 4.76025-1.82273 4.80675-.32694.0171.55-1.157 1.14712-2.609 1.32694-1.84432.2284-2.50674-.07301-2.19775-1zm5.99255-2.99279c.2419-.73378 1.4671-1.48452 2.7228-1.6683 1.5513-.22704 2.1421.0935 1.8433 1-.2418.73378-1.467 1.48452-2.7227 1.6683-1.5513.22704-2.1421-.0935-1.8434-1zm5.341-2.60958c-1.256-1.25601-.4104-2.22457 1.9421-2.22457 1.375 0 2.5.39752 2.5.88337 0 1.04731-3.6377 2.14563-4.4421 1.3412zm5.4421-4.31819c0-.60149.8689-1.32083 1.9308-1.59854 1.062-.27771 2.1729-1.13558 2.4686-1.90638.6324-1.64791 3.6006-1.90169 3.6006-.30784 0 .60149-.9 1.32897-2 1.61663s-2 1.14553-2 1.90638-.9 1.38337-2 1.38337-2-.49213-2-1.09362zm9-6.90638c0-.55.9-1 2-1s2 .45 2 1-.9 1-2 1-2-.45-2-1zm190 41.75277c13.3679-3.43168 23.1453-10.97057 27.3772-21.109.8852-2.12093 1.361-4.25843 1.0572-4.75-.8207-1.32789-4.2696-1.08306-7.2801.5168-4.7306 2.51396-15.6888 5.58943-19.9157 5.58943-4.7204 0-5.951 1.14467-3.6763 3.41938 1.4408 1.44083 1.4026 1.58062-.4318 1.58062-1.1068 0-2.2905-.45-2.6305-1-.3661-.59241-6.8097-1.01789-15.809-1.04389-10.6121-.03067-16.3966-.47826-19.191-1.48495-2.2-.79257-5.575-1.4506-7.5-1.46226-1.925-.01167-4.7072-.65104-6.1826-1.42081-1.4755-.76977-4.1755-1.71117-6-2.092-1.8246-.38083-4.2174-1.25206-5.3174-1.93606-1.1-.68401-3.2375-1.54841-4.75-1.92089-1.5125-.37249-2.75-1.11867-2.75-1.65819s-.6214-.98095-1.3809-.98095c-.7596 0-5.1471-2.01797-9.75-4.48437-4.603-2.46641-9.3816-4.93027-10.6191-5.47525-1.2375-.54498-2.25-1.44344-2.25-1.99658 0-.55313-1.0924-1.27988-2.4276-1.615-1.3352-.33511-2.6711-1.24368-2.9686-2.01905-.2976-.77536-1.293-1.40975-2.2121-1.40975-.9192 0-2.2182-.74812-2.8868-1.66248-.7201-.98477-1.8861-1.40521-2.8603-1.03138-2.2428.86067-2.0688 2.42443.3554 3.19386 2.6465.83995 2.5365 2.1158-.25 2.8998-2.1007.59107-2.1339.72223-.5 1.97688.9625.73909 1.75 1.69259 1.75 2.11889 0 .98578 4.8406 5.50443 5.8966 5.50443.4364 0 1.6079.9 2.6034 2s2.4153 2 3.155 2c.7398 0 1.345.41732 1.345.92738s2.3625 2.11799 5.25 3.57318 7.05 3.72888 9.25 5.05264c2.2 1.32377 4.675 2.67331 5.5 2.99898.825.32567 2.175 1.01252 3 1.52634.825.51381 2.175 1.18503 3 1.49158 1.6234.60321 6.71 2.81333 11.5 4.99668 3.4278 1.56244 10.3702 4.0699 15.5 5.59833 1.925.57356 3.9613 1.41711 4.525 1.87457.5638.45746 3.3763 1.14364 6.25 1.52486 4.4452.58967 5.225.45001 5.225-.93571 0-2.26859 1.9576-2.03662 7.0928.84048 4.9255 2.7597 9.9809 2.83168 19.9072.28346zm-36.269-6.0454c-2.6229-1.1513-4.6125-2.56894-4.4213-3.15032.1912-.58138 3.6872-1.33008 7.769-1.66377 4.0817-.3337 11.03-.95489 15.4406-1.38043 6.8199-.65798 8.2217-.52985 9.3725.85672.97 1.16883 3.0172 1.63043 7.2307 1.63043 3.2326 0 5.8775.38886 5.8775.86412 0 .47527-6.6375 1.07866-14.75 1.34087-11.059.35745-15.5508.89192-17.9503 2.13588-1.7602.91252-3.3352 1.61427-3.5 1.55945-.1648-.05482-2.4457-1.04165-5.0687-2.19295zm-16.731-6.20737c0-1.61634 1.9362-1.86277 6.875-.875 4.816.9632 3.7014 2.375-1.875 2.375-3.7777 0-5-.36667-5-1.5zm-8.3333-2.16667c-1.346-1.34596-.6048-2.33333 1.7515-2.33333 3.0617 0 5.5818.95129 5.5818 2.10699 0 1.02982-6.3343 1.22533-7.3333.22634zm-7.4167-2.97711c-2.4925-1.04265-1.1718-2.4754 2-2.16958 1.7875.17235 3.25.76336 3.25 1.31336 0 1.11857-3.326 1.66102-5.25.85622zm-7.5561-3.9957c-.8853-.88529.1609-2.36052 1.674-2.36052.6874 0 2.1234.66069 3.191 1.4682 1.843 1.39399 1.7853 1.4698-1.1422 1.5-1.6958.01749-3.3711-.25597-3.7228-.60768zm-6.2976-3.77027c-.2975-.77537-1.6334-1.68394-2.9686-2.01905-1.3352-.33512-2.4277-1.05073-2.4277-1.59025 0-1.51356 3.9941-1.15995 4.5953.40684.2929.76328 1.8538 1.65203 3.4687 1.975 1.6148.32296 2.936 1.04846 2.936 1.61221 0 1.56374-4.9874 1.2213-5.6037-.38475zm-9.1463-5.29858c-1.3324-.48856-1.7618-3.30212-.5-3.27636.4125.00842 1.4213.43969 2.2417.95836 1.7276 1.09221.2562 3.05053-1.7417 2.318zm-6.9503-4.61708c-.4398-.72898-1.5872-1.61485-2.5497-1.96862-2.3838-.87618-2.2148-2.70597.25-2.70597 1.1 0 2 .62622 2 1.39159 0 .76538 1.125 1.67395 2.5 2.01905 1.375.34511 2.5 1.06889 2.5 1.60841 0 1.46233-3.7772 1.18552-4.7003-.34446zm-7.7997-6.67459c-.3399-.55.3086-1 1.441-1 1.1325 0 2.059.45 2.059 1s-.6484 1-1.4409 1c-.7926 0-1.7191-.45-2.0591-1zm-145.84245 19.94245c.58165-.58165 3.7027-1.33055 6.93565-1.66423 3.23296-.33367 6.4792-1.20777 7.21388-1.94244.73468-.73468 2.55351-1.33578 4.04184-1.33578 1.48834 0 3.5937-.61439 4.67857-1.3653 1.08488-.75092 3.07652-1.71028 4.42587-2.13193 1.34935-.42165 3.06899-1.38226 3.82143-2.1347s2.18082-1.36807 3.17419-1.36807c.99337 0 2.36633-.675 3.05102-1.5.6847-.825 2.0632-1.5 3.0634-1.5s2.1009-.45682 2.446-1.01515c.345-.55833 2.0591-1.6824 3.809-2.49791 1.7499-.81552 4.5316-2.37702 6.1816-3.47001 1.65-1.09298 3.9-2.4506 5-3.01693 1.1-.56633 3.35-1.91823 5-3.00423 1.65-1.08599 4.0301-2.50953 5.289-3.16343 1.259-.65389 2.1479-1.89617 1.9754-2.76062-.3848-1.92796-3.6619-1.61954-9.2644.8719-11.493 5.11099-16.7673 6.0292-19.6503 3.42099-1.8338-1.65893-4.00741-1.87966-19.7054-2.00104-9.70437-.07503-22.40813-.25589-28.23059-.40191-8.98016-.22521-11.25593.04875-15 1.80572-2.42754 1.13917-5.08871 2.32966-5.91371 2.64555-.825.31589-2.175.9874-3 1.49224-.825.50485-5.13833 1.68938-9.58517 2.6323-7.5438 1.5996-8.72387 1.60552-17.62387.08846-5.24628-.89426-10.97014-1.62593-12.71969-1.62593-1.74955 0-5.12007-.88335-7.49006-1.963-4.88151-2.22379-10.96774-8.55207-9.95112-10.34687 1.2224-2.1581 3.66523-4.69013 4.5249-4.69013 1.33969 0 .98067 3.78588-.40499 4.27057-1.79875.62918 1.85538 4.48565 6.49306 6.85262 3.63035 1.85285 20.52121 4.33145 29.25694 4.29322 6.09238-.02666 16.23656-2.11848 18.72462-3.86118 1.22121-.85538 3.24527-1.55523 4.49789-1.55523 1.25262 0 2.27749-.40186 2.27749-.89301 0-1.18226-2.53106-2.10336-5.83179-2.1223-1.46751-.00842-3.31974-.42751-4.11605-.93129-2.29763-1.4536 3.19185-2.41762 9.52692-1.67305 5.48782.64498 9.42092-.60004 9.42092-2.98219 0-1.32732-17.39279-2.55705-20.48054-1.44804-2.57411.92453-10.51946.12757-10.51946-1.05516 0-.49223 5.2875-.99002 11.75-1.10621 16.47621-.29621 18.62193-.17295 19.04426 1.09402.64306 1.9292 6.70756 1.21891 11.29846-1.32331 7.118-3.94159 14.70139-7.55946 15.84535-7.55946 1.80864 0 1.16661-1.99194-.68807-2.13479-.9625-.07413-12.06248-.18663-24.66663-.25-15.96538-.08026-23.03015-.45575-23.29089-1.23789-.20584-.61747.65664-1.39882 1.91663-1.73634 3.70852-.99342 51.78929-.5849 57.79089.49102 3.025.5423 10.225 1.36214 16 1.82187 5.775.45973 11.6955 1.30609 13.1567 1.8808 6.8095 2.6782 22.4712 2.57513 21.581-.14203-.5899-1.80047-6.2227-3.36076-16.7545-4.64099-5.2158-.63402-9.9107-1.58001-10.4332-2.10221-.5225-.52219-3.7333-.94944-7.1352-.94944-3.40181 0-8.37431-.64058-11.04997-1.42351-2.67565-.78293-9.13983-1.91615-14.36483-2.51827-5.225-.60211-12.65-1.57098-16.5-2.15303-9.56942-1.44672-52.70404-.81452-54.6479.80095-.79823.66338-3.454 1.51732-5.90171 1.89766-2.44772.38033-5.33802 1.30007-6.4229 2.04386-1.08487.74379-2.77417 1.35234-3.75398 1.35234-3.7411 0-16.32314 7.72046-23.18209 14.22474-6.98507 6.62388-7.09142 6.80133-7.09142 11.83192 0 4.94975.18559 5.28191 6.02055 10.77526 3.31131 3.11745 7.81131 6.51061 10 7.54036 2.1887 1.02975 5.25342 2.49225 6.81049 3.25 1.55707.75775 3.59444 1.37772 4.52749 1.37772.93305 0 2.58409.6175 3.66896 1.37223 1.08488.75472 3.46532 1.69713 5.28987 2.09425 1.82455.39711 4.52455 1.35184 6 2.12161 1.47545.76977 3.60913 1.40236 4.74151 1.40575 1.13238.00339 2.93238.66685 4 1.47436 1.06762.8075 3.96613 1.48914 6.44113 1.51474 2.475.0256 5.625.67079 7 1.43375 3.13023 1.73692 35.98765 2.19566 37.65755.52576zm-9.90755-3.64818c1.2375-.23836 3.2625-.23836 4.5 0 1.2375.23835.225.43337-2.25.43337s-3.4875-.19502-2.25-.43337zm11.45603-2.05893c-.67017-.22339-.96413-.81773-.65324-1.32075.72403-1.17151 5.1569-1.19334 5.87654-.02894.6058.98021-3.30225 1.99004-5.2233 1.34969zm8.29397-4.23534c.33992-.55 1.26648-1 2.05902-1 .79254 0 1.44098.45 1.44098 1s-.92656 1-2.05902 1c-1.13246 0-1.7809-.45-1.44098-1zm-55.25623-2.66436c-.69093-.27855-1.00187-.91803-.69098-1.42105 1.10275-1.7843 23.44721-.6172 23.44721 1.2247 0 .90009-20.57042 1.07759-22.75623.19635zm30.75623-.19635c0-.95211 8.10414-2.11709 14.82143-2.1306 2.49751-.00502 4.95452-.64179 5.82143-1.50869.825-.825 3.02049-1.5 4.87888-1.5 1.87802 0 3.73409-.63116 4.17857-1.42093.90026-1.59963 8.12839-4.5322 13.04969-5.29448 2.52894-.39171 3.25-.14633 3.25 1.106 0 .91558-.82067 1.60941-1.90361 1.60941-1.68898 0-5.71232 2.9467-11.26432 8.25-2.24525 2.14467-3.43933 2.21585-4.1937.25-.37634-.98073-1.93414-1.5-4.5-1.5s-4.12365.51927-4.5 1.5c-.45593 1.18816-2.55713 1.5-10.10699 1.5-5.24226 0-9.53138-.38732-9.53138-.86071zm-40-3.06242c-3.25924-.61446-3.33925-.71512-1.16306-1.46334 3.10787-1.06856 10.09564.18362 8.09387 1.45039-1.55729.9855-1.77007.98589-6.93081.01295zm87-10.57687c0-1.11111 1.16667-1.5 4.5-1.5 4.4631 0 5.9586 1.22632 2.9182 2.39301-3.09094 1.18611-7.4182.66519-7.4182-.89301zm-89.75-23.18933c.9625-.25152 2.5375-.25152 3.5 0 .9625.25153.175.45733-1.75.45733s-2.7125-.2058-1.75-.45733zm7.25-3.31067c.33992-.55 3.54303-1 7.11803-1 4.07869 0 6.26978.37251 5.88197 1-.33992.55-3.54303 1-7.11803 1-4.07869 0-6.26978-.37251-5.88197-1zm297.1576 52.94245c.5816-.58165 3.7091-1.32262 6.95-1.64659 3.2408-.32398 6.7801-1.19808 7.8649-1.94245 1.0849-.74438 3.1099-1.36868 4.5-1.38734 1.3902-.01866 4.3275-.90339 6.5275-1.96607 2.2-1.06268 4.5473-1.94741 5.2161-1.96607.6688-.01866 2.9188-.75878 5-1.6447s5.3589-2.2811 7.2839-3.1004c8.2567-3.51412 12.5446-6.0509 17.1252-10.1315 2.6812-2.38847 4.8748-4.82803 4.8748-5.42126 0-.59322.7202-1.87434 1.6004-2.84692 1.4735-1.62827 1.4225-2.12426-.6438-6.26158-1.2342-2.47128-4.0918-6.28854-6.3503-8.48279-4.9724-4.83111-14.4395-11.14478-16.711-11.14478-.9077 0-2.2106-.675-2.8953-1.5-.6847-.825-2.1193-1.5-3.1882-1.5-1.0688 0-2.9262-.55138-4.1275-1.22528-1.2013-.67391-4.4343-1.75766-7.1843-2.40833-2.75-.65067-6.8-1.66356-9-2.25086-4.9244-1.3146-45.8421-1.33793-53.5-.0305-3.025.51646-10.225 1.57056-16 2.34245-5.775.77188-12.3 1.88074-14.5 2.46412-2.2.58338-6.7859 1.07142-10.1909 1.08454-3.4051.01312-6.4531.44786-6.7734.96608-.3202.51822-2.7093 1.20519-5.309 1.52658-18.2042 2.25059-23.8718 4.1249-20.1624 6.66784 1.8041 1.2367 17.1405.3593 19.9438-1.14098 1.1365-.60819 7.112-1.5142 13.2791-2.01336 6.1671-.49915 13.4628-1.34755 16.2128-1.88532 5.4534-1.06641 54.5776-1.45071 58.2909-.456 1.26.33752 2.1224 1.11887 1.9165 1.73634-.2609.78213-7.3258 1.15765-23.2909 1.23796-12.6041.0634-23.704.1759-24.6665.25-2.7915.2149-2.0249 1.91542 1.1809 2.61954 1.612.35406 3.4671 1.28981 4.1225 2.07946.6553.78965 1.9813 1.43572 2.9466 1.43572s2.2787.63085 2.9186 1.40189c.6399.77103 2.27 1.67961 3.6225 2.01905 1.3524.33944 2.4589 1.05859 2.4589 1.59811 0 1.45772 6.7331 1.18719 9.2852-.37307 1.6876-1.03169 5.4881-1.24218 15.9648-.88417 7.5625.25841 13.75.86773 13.75 1.35402 0 .8483-6.4292 1.45809-8.5.8062-2.1775-.68551-20.0563.24951-20.9076 1.09341-.5428.5381-.4058 1.50441.3407 2.40389 1.0001 1.20512 2.7918 1.38505 9.0138.90525 5.2079-.4016 7.9911-.23396 8.4503.50897.6721 1.08759-1.2003 1.79478-6.3188 2.3865-3.7565.43426-3.5621 2.46662.3053 3.19216 1.9089.35811 3.616 1.0784 3.7936 1.60063.4531 1.33297 17.6888 4.21361 21.3227 3.56373 1.65-.29507 7.275-1.01138 12.5-1.59179 13.205-1.46686 20.9169-5.37075 19.7119-9.97846-.7159-2.73787 1.2818-3.73544 2.9398-1.46797 2.0426 2.79338 1.6345 5.1119-1.4017 7.96372-4.0096 3.76612-10.8246 6.49823-17.1822 6.88822-3.0623.18784-8.9918.92897-13.1768 1.64694-6.6969 1.14892-8.3232 1.10505-13.5656-.36591-3.2761-.91923-7.1095-1.67132-8.5185-1.67132-1.4091 0-3.1222-.675-3.8069-1.5-.6847-.825-2.0632-1.5-3.0634-1.5s-2.1138-.47776-2.4747-1.06168c-1.4306-2.31478-6.5468-3.08921-19.4619-2.94588-46.3504.51436-44.0828.40171-45.4404 2.25756-.704.9625-2.1843 1.75-3.2895 1.75-2.3671 0-13.4745-3.40431-17.7701-5.44637-1.65-.78439-3.7875-1.66571-4.75-1.95851-.9625-.29279-1.75-.99647-1.75-1.56374 0-1.60386 8.2639-1.21417 13.1243.6189 3.6837 1.38929 8.9981 1.66173 33.6031 1.72262 20.3428.05035 29.5681-.26841 30.3483-1.0486 1.2136-1.21357 1.2747-1.17199-10.501-7.15234-3.6042-1.83042-6.8095-3.74292-7.1229-4.25-.3134-.50708-1.4591-.92196-2.546-.92196-1.0869 0-3.1398-.76245-4.562-1.69433-3.4975-2.29165-28.612-2.19441-36.4769.14123-2.8764.8542-7.9607 1.55999-11.2984 1.56841-8.2523.02083-9.2433.76037-7.0925 5.29286.9288 1.95728 1.5392 5.0141 1.3564 6.79295-.3388 3.29714.3951 4.05678 7.6676 7.936 6.3139 3.36786 7.5 4.1614 7.5 5.01745 0 .51998.6429.94543 1.4286.94543.7857 0 2.0312.5625 2.7678 1.25 1.2503 1.16705 8.4216 4.92131 11.8036 6.17932.825.30687 2.4 1.08178 3.5 1.72201 4.07 2.36885 5.0551 2.87557 7.5 3.85791 1.375.55245 3.6945 1.67638 5.1543 2.49761 1.4599.82123 3.4973 1.49315 4.5275 1.49315 1.0303 0 2.7609.60903 3.8457 1.35341 1.0849.74437 4.6241 1.61847 7.865 1.94245 3.2408.32397 6.3683 1.06494 6.95 1.64659 1.433 1.43303 33.8821 1.43303 35.3151 0zm-30.8843-3.10374c-.7637-.48471.4275-.81421 2.9767-.8234 2.3375-.00842 4.25.15862 4.25.37119 0 .83551-6.0284 1.21273-7.2267.45221zm-10.5381-2.62847c-1.2457-.19428-2.0066-.77106-1.691-1.28173.7313-1.18329 6.1598-1.21656 6.8856-.0422.6718 1.08711-2.1316 1.80162-5.1946 1.32393zm-7.2352-4.21024c-1.1688-.75538-.8929-.97275 1.25-.98469 1.5125-.00842 2.75.43469 2.75.98469 0 1.26441-2.0434 1.26441-4 0zm-9.2106-7c-3.0854-2.75-6.3394-5-7.231-5-.8916 0-1.8802-.675-2.1967-1.5-.3228-.84111-1.8105-1.5-3.3869-1.5-3.4173 0-5.9748-.90188-5.9748-2.10699 0-1.5927 8.0103-1.02984 8.6384.60699.3166.825 1.765 1.50277 3.2186 1.50616 1.4537.00339 3.932.67839 5.5073 1.5 1.5754.82161 3.4272 1.49384 4.1152 1.49384.6879 0 2.395.9 3.7934 2s3.879 2 5.5124 2c1.6334 0 3.4748.60838 4.0919 1.35195.7152.86181 4.4374 1.56675 10.2668 1.94442 12.8927.83528 14.0174 2.70363 1.6275 2.70363-7.2254 0-10.003-.37438-11.1286-1.5-.825-.825-3.1213-1.5-5.1028-1.5-2.28 0-3.8142.55074-4.1784 1.5-.8559 2.23032-1.4523 1.95464-7.5723-3.5zm44.8422 3.96843c1.2455-1.24548 20.4203-2.54624 22.9913-1.55966 3.9122 1.50127-1.2592 2.56079-12.5729 2.57592-7.8669.01052-11.1272-.3075-10.4184-1.01626zm24.9955-2.7629c-1.275-2.06294 6.499-3.06281 9.3729-1.20553 1.2272.79307 1.1135.97216-.625.98469-1.1687.00842-3.4766.28564-5.1287.61605-1.652.33041-3.2807.15257-3.6192-.39521zm5.3729-33.59854c0-.97099 2.8174-1.33587 4.0907-.52978 1.0257.6493.6607.89633-1.3407.90748-1.5125.00842-2.75-.16155-2.75-.3777zm-15.5-3.60699c-.388-.62784 1.823-1 5.941-1 3.706 0 6.559.43497 6.559 1 0 .55445-2.647 1-5.9409 1-3.2676 0-6.2191-.45-6.5591-1zm-130.1961 42.08976c11.6214-5.96213 16.9409-17.53782 14.6499-31.87912-1.831-11.46144-9.3397-19.57157-20.9753-22.65538-6.1231-1.62282-6.9148-1.62651-12.9591-.06029-5.9192 1.53382-12.4858 5.48801-15.759 9.48957-6.6199 8.09291-8.3519 22.68699-3.7741 31.80124 4.3375 8.63577 11.1638 13.84898 20.0137 15.28444 5.7023.9249 15.0623-.06092 18.8039-1.98046zm-62.7498-25.56781c2.7202-.82517 6.7459-1.50825 8.9459-1.51796 3.4357-.01516 4.3337-.50758 6.3649-3.49032 3.641-5.34664 2.6639-6.16119-8.0638-6.72232-5.1533-.26955-10.3664-1.0235-11.5845-1.67544-1.3663-.73121-7.9084-1.26128-17.07568-1.38353-11.98882-.15987-15.51597.11717-18.25086 1.43355-16.86473 8.11741-24.16983 12.17339-24.67962 13.70275-.83398 2.50195 55.96166 2.19589 64.34366-.34673zm27.4459-49.08097c0-.79254-.675-1.44098-1.5-1.44098-1.5062 0-2.0556 2.11099-.8605 3.30615.9333.93324 2.3605-.19452 2.3605-1.86517zm48 2.14081c0-.23002-.2731-1.13002-.607-2-.8695-2.26603-3.393-1.955-3.393.41821 0 1.33333.6667 2 2 2 1.1 0 2-.1882 2-.41821z"/>
</svg>